<?xml version="1.0" encoding="UTF-8"?>
<svg width="80px" height="80px" viewBox="0 0 80 80" version="1.1" xmlns="http://www.w3.org/2000/svg" xmlns:xlink="http://www.w3.org/1999/xlink">
    <!-- Generator: Sketch 53 (72520) - https://sketchapp.com -->
    <title>Group 15</title>
    <desc>Created with Sketch.</desc>
    <defs>
        <circle id="path-1" cx="40" cy="40" r="40"></circle>
        <path d="M27.4063608,0.242510934 C29.5268775,0.811391232 32.675263,2.38182007 35.2935315,4.96110353 C37.9118304,7.54041696 40,11.4196115 40,14.4298672 L40,32.5217391 L0,32.5217391 L0,14.4298672 C0,11.4256971 2.04408177,7.5531124 4.61485002,4.9767535 C7.26955063,2.31627972 10.4858904,0.724313678 12.5929459,0.196454216 C12.6321734,3.73959703 15.9333975,7.39130435 20,7.39130435 C24.0489843,7.39130435 27.3392078,3.77116978 27.4063608,0.242510934 Z" id="path-3"></path>
        <path d="M0.000686558079,55.3798442 L1.13686838e-13,22.2866711 C1.13686838e-13,9.97831579 8.77897059,0 19.6107353,0 C30.4401176,0 39.7058824,8.56006579 39.7058824,20.8684211 L39.7058824,22.2866711 C39.7058824,22.2866711 39.7863099,36.4459075 31.9371641,43.3473739 C30.2065143,42.5394737 28.3719484,41.6125353 27.2784309,41.197297 L27.2043942,40.3556535 L27.2444321,40.2859476 C30.7599834,38.0127851 33.4878556,34.1832782 34.8029774,29.5559128 C34.9639764,29.6464311 35.1458387,29.6973684 35.3382353,29.6973684 C35.996626,29.6973684 36.5294118,29.1033687 36.5294118,28.3676102 L36.5294118,23.0015813 C36.5294118,22.7168688 36.4496316,22.4532681 36.3136651,22.2370734 C36.0871276,21.9949285 35.7715963,21.8444536 35.4222394,21.8437159 C35.2627036,21.8437159 35.110831,21.8780118 34.9708017,21.9349284 C18.9447622,23.8547692 13.354737,12.8428453 12.8823994,12.8421156 C12.8823994,12.8421156 6.17980306,19.1833164 5.06026535,21.5110595 C5.06026535,21.5110595 4.98223908,21.9590085 4.88122292,21.8853088 C4.74049696,21.8276625 4.59001772,21.7933666 4.42978519,21.7926369 C3.73939199,21.7919072 3.17788148,22.3778563 3.17648815,23.1017187 C3.17646668,23.066242 3.1764649,23.0308318 3.1764828,22.995488 L3.17647059,23.0015813 L3.17647059,28.3676102 C3.17647059,29.1033687 3.71063663,29.6973684 4.36764706,29.6973684 C4.51325081,29.6973684 4.65271151,29.6683172 4.78162509,29.6151063 C6.11127013,34.2446984 8.85642287,38.0700545 12.3885066,40.3282229 L12.4015934,40.3556535 L12.3683243,41.1533126 C8.22898918,42.6722141 0.0866773503,49.2738101 0.000686558079,55.3798442 Z" id="path-5"></path>
    </defs>
    <g id="Møtestøtte-del2_flyt" stroke="none" stroke-width="1" fill="none" fill-rule="evenodd">
        <g id="Aktivitetsplan_dialog_møtestøttedel2_skjema3-Copy-3" transform="translate(-555.000000, -283.000000)">
            <g id="Group-15" transform="translate(555.000000, 283.000000)">
                <g id="spotlight/-mann">
                    <g id="-80/-Blå">
                        <mask id="mask-2" fill="white">
                            <use xlink:href="#path-1"></use>
                        </mask>
                        <g id="Mask"></g>
                        <g id="V⚙️/STYLING/farge/-Dyp-blå/-60" mask="url(#mask-2)">
                            <g transform="translate(-6.400000, 0.000000)" id="⚙️/farge/-Blå/-60-Copy">
                                <g>
                                    <polygon id="Fill-22" fill="#99BDCD" points="0 80 101 80 101 0 0 0"></polygon>
                                </g>
                            </g>
                        </g>
                        <g id="mennesker/kvinne/-forfra" mask="url(#mask-2)">
                            <g transform="translate(12.800000, 8.000000)" id="Group">
                                <g transform="translate(0.000000, 1.604167)">
                                    <g id="Group-2" transform="translate(9.529412, 4.812500)">
                                        <g id="hud" fill="#E7E5E2" fill-rule="nonzero">
                                            <path d="M32.6822507,26.844413 C31.3200107,31.3096844 28.6530356,35.0161761 25.2351663,37.2844769 L25.4102046,39.2729384 L25.4092161,39.3538205 L23.5616333,55.7447917 L11.8437662,55.7447917 L11.7950924,55.4004291 L9.5297641,39.3255934 L9.61367524,37.315115 C6.17852152,35.0527962 3.4964673,31.3402241 2.12643848,26.8631321 C2.07997939,26.8675401 2.03290474,26.8697917 1.98529412,26.8697917 L1.98529412,26.46875 L1.98529412,26.8697917 C1.09910751,26.8697917 0.397058824,26.0875416 0.397058824,25.1399001 L0.397058824,19.7775365 C0.397058824,19.1422949 0.712496752,18.5810886 1.18735973,18.2800677 C1.9282385,8.2690398 8.88858806,0.401041667 17.4011565,0.401041667 C25.8908153,0.401041667 32.8370735,8.22665966 33.6095513,18.1988574 C34.1640681,18.4711601 34.5441176,19.0794318 34.5441176,19.7775365 L34.5441176,25.1399001 C34.5441176,26.0880097 33.8430503,26.8697917 32.9558824,26.8697917 L32.9558824,26.46875 L32.9558824,26.8697917 C32.8624212,26.8697917 32.7710081,26.8610909 32.6822507,26.844413 Z" id="Combined-Shape"></path>
                                        </g>
                                        <g id="mennesker/X⚙️/⚙️-ansikt-voksen/forfra/-glad" transform="translate(4.715074, 17.846354)">
                                            <g id="Group" transform="translate(5.147059, 0.000000)">
                                                <path d="M1.71007353,4.33695 C0.646102941,4.4187 0.348308824,2.81895 0.668897059,1.7742 C0.729191176,1.5762 1.08139706,0.6747 1.70492647,0.6747 C2.32772059,0.6747 2.60272059,1.16745 2.64095588,1.2522 C3.09904412,2.2707 2.87404412,4.24695 1.71007353,4.33695" id="Fill-42" fill="#635E59"></path>
                                                <path d="M13.5846324,4.33695 C14.6486029,4.4187 14.9463971,2.81895 14.6258088,1.7742 C14.5655147,1.5762 14.2133088,0.6747 13.5897794,0.6747 C12.9669853,0.6747 12.6919853,1.16745 12.65375,1.2522 C12.1956618,2.2707 12.4206618,4.24695 13.5846324,4.33695" id="Fill-44" fill="#635E59"></path>
                                                <path d="M7.98475851,6.17615943 C8.61048312,6.07791197 9.03782567,6.13956933 9.19086949,6.33115236 C9.76853567,7.05531243 9.58376494,7.82144131 8.59269852,8.45036901 C8.07162296,8.78091829 7.35437968,8.89725939 6.97466683,8.7258554 C6.78899108,8.64204057 6.57185806,8.72762557 6.48968667,8.91701484 C6.40751527,9.1064041 6.49142213,9.32787978 6.67709788,9.4116946 C7.30466753,9.69498221 8.26976789,9.53843722 8.98107264,9.08721422 C10.3278731,8.23253877 10.6360933,6.9545422 9.7610565,5.85759969 C9.39076153,5.39405757 8.73527673,5.29948365 7.87288855,5.43489057 C7.67220645,5.46640045 7.53456441,5.65788294 7.56545645,5.86257868 C7.59634848,6.06727442 7.78407641,6.2076693 7.98475851,6.17615943 Z" id="Stroke-46" fill="#59514B" fill-rule="nonzero"></path>
                                                <path d="M12.1756384,11.6440806 C12.1424751,11.7215599 12.0664244,11.8699064 11.9442014,12.0653098 C11.7373082,12.3960794 11.4775021,12.727693 11.1619523,13.03693 C10.2216374,13.9584332 8.99773556,14.4912857 7.44002133,14.4425513 C5.92115552,14.3950322 4.70272452,13.8704023 3.74744172,13.0244018 C3.39670625,12.7137897 3.10713912,12.3811439 2.87568719,12.0495721 C2.73920015,11.8540445 2.65397684,11.7057951 2.61670375,11.6285419 C2.52704783,11.4427186 2.30668153,11.3662131 2.12450184,11.4576622 C1.94232215,11.5491112 1.86731681,11.7738848 1.95697272,11.9597081 C2.01097509,12.0716349 2.11606931,12.2544505 2.27670848,12.4845778 C2.54046689,12.862431 2.86845201,13.2392102 3.26537731,13.5907281 C4.34376267,14.5457485 5.72191637,15.1391516 7.41747867,15.1921987 C9.18314565,15.2474392 10.5947256,14.6328768 11.6713817,13.5777601 C12.0313806,13.2249633 12.3272999,12.847255 12.5640808,12.4687027 C12.7080623,12.238513 12.8017093,12.0558426 12.8495086,11.9441694 C12.930751,11.7543636 12.84576,11.5333184 12.6596758,11.4504512 C12.4735917,11.367584 12.2568808,11.4542748 12.1756384,11.6440806 Z" id="Stroke-48" fill="#59514B" fill-rule="nonzero"></path>
                                            </g>
                                        </g>
                                    </g>
                                    <g id="Group-1">
                                        <g id="mennesker/X⚙️/⚙️-kropp/voksen/Forfra/-rundhals" transform="translate(7.147059, 40.906250)">
                                            <g id="Group" transform="translate(0.000000, 1.478261)">
                                                <mask id="mask-4" fill="white">
                                                    <use xlink:href="#path-3"></use>
                                                </mask>
                                                <use id="Mask" fill="#D8A25D" xlink:href="#path-3"></use>
                                                <g id="STYLING/farge/-Fokus-oransje/+20" mask="url(#mask-4)" fill="#D8A25C">
                                                    <g transform="translate(-26.666667, -20.695652)" id="Fill-46">
                                                        <polygon points="0 74 93 74 93 0 0 0"></polygon>
                                                    </g>
                                                </g>
                                            </g>
                                        </g>
                                        <g id="mennesker/X⚙️/⚙️kvinne/-hår/-lang-side-copy-2">
                                            <g id="Group-5" transform="translate(7.147059, 1.605263)">
                                                <g id="hårfarge/-gull">
                                                    <mask id="mask-6" fill="white">
                                                        <use xlink:href="#path-5"></use>
                                                    </mask>
                                                    <use id="Path" fill="#FAA738" xlink:href="#path-5"></use>
                                                    <g id="mennesker/X⚙️/⚙️-hårfarge/-sort" mask="url(#mask-6)" fill="#3E3832">
                                                        <g transform="translate(-7.147059, -4.815789)" id="hårfarge/-sort">
                                                            <rect x="0" y="0" width="55" height="63"></rect>
                                                        </g>
                                                    </g>
                                                </g>
                                            </g>
                                        </g>
                                    </g>
                                </g>
                            </g>
                        </g>
                    </g>
                </g>
                <g id="nav-id/-kort/-rød" transform="translate(48.524590, 62.372881)">
                    <g id="NAV-Copy-2" transform="translate(0.000000, -0.750000)">
                        <g id="Group-11">
                            <g id="Navansatt-dame">
                                <g transform="translate(0.000000, 0.562500)">
                                    <path d="M13.0259051,9.1875 L0.973373848,9.1875 C0.43549467,9.1875 0,8.7611653 0,8.23459959 L0,1.89110626 C0,1.36454055 0.43549467,0.9375 0.973373848,0.9375 L13.0259051,0.9375 C13.5637843,0.9375 14,1.36454055 14,1.89110626 L14,8.23459959 C14,8.7611653 13.5637843,9.1875 13.0259051,9.1875" id="Fill-97" fill="#D2242A"></path>
                                    <path d="M10.0051262,5.44372113 C10.0051262,7.00160156 8.6891882,8.26605469 7.06532347,8.26605469 C5.43869706,8.26605469 4.12206864,7.00160156 4.12206864,5.44372113 C4.12206864,3.88584069 5.43869706,2.62138757 7.06532347,2.62138757 C8.6891882,2.62138757 10.0051262,3.88584069 10.0051262,5.44372113" id="Fill-98" fill="#FFFFFF"></path>
                                    <polygon id="Fill-99" fill="#FFFFFF" points="3.25435044 6.68777344 2.68061252 6.68777344 3.29370431 5.24580673 3.86882307 5.24580673"></polygon>
                                    <polygon id="Fill-100" fill="#FFFFFF" points="10.4851743 6.68777344 10.1296087 6.68777344 10.7427005 5.24580673 11.0982661 5.24580673"></polygon>
                                    <polygon id="Fill-101" fill="#FFFFFF" points="11.4665354 6.68777344 11.3160242 6.68777344 11.9277351 5.24580673 12.0782464 5.24580673"></polygon>
                                    <path d="M4.83071437,6.68081861 L5.28224819,6.68081861 C5.30572242,6.68081861 5.32367331,6.66359715 5.32367331,6.64173913 L5.32367331,5.2925034 C5.32367331,5.27064538 5.30572242,5.25342391 5.28224819,5.25342391 L4.82588144,5.25342391 C4.79550302,5.25342391 4.77340962,5.27594429 4.77340962,5.30442595 L4.59390076,5.72900136 C4.58285407,5.75085937 4.60080495,5.77735394 4.62496961,5.77735394 L4.7540779,5.77735394 C4.77340962,5.77735394 4.78997967,5.79126359 4.78997967,5.81179687 L4.78997967,6.64173913 C4.78997967,6.66359715 4.80793056,6.68081861 4.83071437,6.68081861" id="Fill-102" fill="#C52D35"></path>
                                    <path d="M5.81173027,6.68081861 L6.26464493,6.68081861 C6.28811916,6.68081861 6.3081413,6.66359715 6.3081413,6.64173913 L6.3081413,5.2925034 C6.3081413,5.27064538 6.28811916,5.25342391 6.26464493,5.25342391 L5.56041787,5.25342391 C5.53072987,5.25342391 5.50725564,5.27594429 5.50725564,5.30442595 L5.32705636,5.72900136 L5.26491868,5.77735394 L5.62531723,5.77735394 C5.7054058,5.77735394 5.77099557,5.83829144 5.77099557,5.91645041 L5.77099557,6.64173913 C5.77099557,6.66359715 5.78894646,6.68081861 5.81173027,6.68081861" id="Fill-103" fill="#C52D35"></path>
                                    <path d="M7.83707347,5.25355639 L7.38415882,5.25355639 C7.361375,5.25355639 7.3427337,5.27077785 7.3427337,5.29263587 L7.3427337,6.6418716 C7.3427337,6.66372962 7.361375,6.68095109 7.38415882,6.68095109 L7.8419064,6.68095109 C7.87228482,6.68095109 7.89437822,6.65843071 7.89437822,6.62994905 L8.07388708,6.20537364 C8.08493378,6.1821909 8.06767331,6.15702106 8.04005656,6.15702106 L7.91509078,6.15702106 C7.89437822,6.15702106 7.87987943,6.14112432 7.87987943,6.12324049 L7.87987943,5.29263587 C7.87987943,5.27077785 7.85916687,5.25355639 7.83707347,5.25355639" id="Fill-104" fill="#C52D35"></path>
                                    <path d="M5.97418579,6.68081861 L6.27175624,6.68081861 C6.30075382,6.68081861 6.32422806,6.65763587 6.32422806,6.63047894 L6.50373692,6.2045788 C6.5140932,6.18205842 6.49683273,6.15622622 6.47059682,6.15622622 L6.34494062,6.15622622 L5.97418579,6.68081861 Z" id="Fill-105" fill="#C52D35"></path>
                                    <path d="M9.04903442,5.25355639 L9.58756099,5.25355639 C9.6137969,5.25355639 9.6324382,5.27740149 9.62139151,5.30058424 L9.05110568,6.65909307 C9.04696316,6.67300272 9.03384521,6.68095109 9.01796558,6.68095109 L8.53052999,6.68095109 L9.01382307,5.27673913 C9.01934642,5.26282948 9.03384521,5.25355639 9.04903442,5.25355639" id="Fill-106" fill="#C52D35"></path>
                                    <path d="M8.37380495,5.25355639 L7.61227315,5.25355639 C7.55842049,5.25355639 7.83113587,5.30389606 7.85046759,5.35092391 L8.38899416,6.63591033 C8.40004086,6.66439198 8.42765761,6.68095109 8.45803603,6.68095109 L8.91992613,6.68095109 L8.44491808,5.30190897 C8.4345618,5.27144022 8.40556421,5.25355639 8.37380495,5.25355639" id="Fill-107" fill="#C52D35"></path>
                                    <path d="M7.37946397,5.71125 C7.37946397,5.99871603 7.34149094,6.0159375 7.34149094,6.0159375 C7.34149094,6.0159375 7.29868498,5.74039402 7.07706059,5.74039402 C6.8595787,5.74039402 6.80986856,5.86226902 6.80986856,5.95301291 C6.80986856,6.0583288 6.92102597,6.15702106 6.98316365,6.15702106 L7.37946397,6.15702106 L7.14541204,6.65445652 C7.13712701,6.67101563 7.12055696,6.68095109 7.10191566,6.68095109 L6.92171638,6.68095109 C6.73323209,6.68095109 6.24096357,6.44382473 6.24096357,5.98480639 C6.24096357,5.52512568 6.60688547,5.25355639 6.91205052,5.25355639 C7.16405334,5.25355639 7.37946397,5.41980978 7.37946397,5.71125 Z" id="Fill-108" fill="#C52D35"></path>
                                    <path d="M7.72419002,2.24701936 L6.47522262,2.24701936 C6.38270652,2.24701936 6.3081413,2.17548404 6.3081413,2.08672724 L6.3081413,1.88470618 C6.3081413,1.79661175 6.38270652,1.72441406 6.47522262,1.72441406 L7.72419002,1.72441406 C7.81670612,1.72441406 7.89127134,1.79661175 7.89127134,1.88470618 L7.89127134,2.08672724 C7.89127134,2.17548404 7.81670612,2.24701936 7.72419002,2.24701936" id="Fill-109" fill="#5A1F57"></path>
                                    <polygon id="Fill-110" fill="#C2B5CF" points="6.73813406 2.0625 7.46169283 2.0625 7.46169283 0.1875 6.73813406 0.1875"></polygon>
                                </g>
                            </g>
                        </g>
                    </g>
                </g>
            </g>
        </g>
    </g>
</svg>